<?xml version="1.0" encoding="UTF-8"?>
<svg width="95.0px" height="95.0px" viewBox="0 0 95.0 95.0" version="1.1" xmlns="http://www.w3.org/2000/svg">
  <g transform="matrix(1.9410285,0,0,1.9359835,1.0640025,1)" fill="#34a1e5">
    <path
      d="M 24,0 A 24,24 0 0 0 0,24 24,24 0 0 0 24,48 24,24 0 0 0 48,24 24,24 0 0 0 24,0 Z m 2,11 c 1.376,0 2.5,1.124 2.5,2.5 a 2.502,2.502 0 0 1 -2.445,2.494 l -0.946,5.203 a 3.503,3.503 0 0 1 2.106,1.924 L 32.52,21.7 c -0.006,-0.067 -0.02,-0.131 -0.02,-0.199 0,-1.376 1.124,-2.5 2.5,-2.5 1.376,0 2.5,1.124 2.5,2.5 C 37.5,22.877 36.376,24 35,24 a 2.496,2.496 0 0 1 -2.2,-1.34 l -5.341,1.432 c 0.016,0.135 0.041,0.268 0.041,0.408 0,0.785 -0.269,1.502 -0.707,2.086 l 3.697,3.697 A 1.97,1.97 0 0 1 31.5,30 c 1.1,0 2,0.9 2,2 0,1.1 -0.9,2 -2,2 -1.1,0 -2,-0.9 -2,-2 0,-0.368 0.11,-0.71 0.285,-1.008 L 26.084,27.293 C 25.5,27.73 24.784,28 24,28 23.215,28 22.498,27.73 21.914,27.293 l -2.975,2.975 c 0.35,0.49 0.561,1.086 0.561,1.732 0,1.653 -1.347,3 -3,3 -1.653,0 -3,-1.347 -3,-3 0,-1.653 1.347,-3 3,-3 0.647,0 1.244,0.208 1.734,0.559 l 2.973,-2.973 A 3.463,3.463 0 0 1 20.5,24.5 c 0,-0.14 0.025,-0.273 0.041,-0.408 L 15.199,22.66 A 2.496,2.496 0 0 1 13,24 2.506,2.506 0 0 1 10.5,21.5 c 0,-1.376 1.124,-2.5 2.5,-2.5 1.376,0 2.5,1.124 2.5,2.5 0,0.068 -0.014,0.132 -0.02,0.2 l 5.305,1.421 A 3.503,3.503 0 0 1 24,21 c 0.043,0 0.083,0.012 0.125,0.012 L 25.07,15.816 A 2.505,2.505 0 0 1 23.5,13.5 C 23.5,12.124 24.624,11 26,11 Z m 0,1 c -0.84,0 -1.5,0.66 -1.5,1.5 0,0.84 0.66,1.5 1.5,1.5 0.84,0 1.5,-0.66 1.5,-1.5 C 27.5,12.66 26.84,12 26,12 Z m -13,8 c -0.84,0 -1.5,0.66 -1.5,1.5 0,0.84 0.66,1.5 1.5,1.5 0.84,0 1.5,-0.66 1.5,-1.5 C 14.5,20.66 13.84,20 13,20 Z m 22,0 c -0.84,0 -1.5,0.66 -1.5,1.5 0,0.84 0.66,1.5 1.5,1.5 0.84,0 1.5,-0.66 1.5,-1.5 C 36.5,20.66 35.84,20 35,20 Z m -11,2 a 2.484,2.484 0 0 0 -2.5,2.5 c 0,1.394 1.106,2.5 2.5,2.5 1.394,0 2.5,-1.106 2.5,-2.5 C 26.5,23.106 25.394,22 24,22 Z m 0,1 c 0.822,0 1.5,0.678 1.5,1.5 0,0.822 -0.678,1.5 -1.5,1.5 -0.822,0 -1.5,-0.678 -1.5,-1.5 0,-0.822 0.678,-1.5 1.5,-1.5 z m 0,1 c -0.286,0 -0.5,0.214 -0.5,0.5 0,0.286 0.214,0.5 0.5,0.5 0.286,0 0.5,-0.214 0.5,-0.5 C 24.5,24.214 24.286,24 24,24 Z m -7.5,6 c -1.117,0 -2,0.883 -2,2 0,1.117 0.883,2 2,2 1.117,0 2,-0.883 2,-2 0,-1.117 -0.883,-2 -2,-2 z m 15,1 c -0.563,0 -1,0.437 -1,1 0,0.563 0.437,1 1,1 0.563,0 1,-0.437 1,-1 0,-0.563 -0.437,-1 -1,-1 z"/>
    </g>
</svg>
